<svg width="45" height="45" viewBox="0 0 45 45" fill="none" xmlns="http://www.w3.org/2000/svg">
<rect x="0.548828" y="0.220703" width="44" height="44" rx="10" fill="#FCDFD3"/>
<g clip-path="url(#clip0_30_1203)">
<path d="M26.5488 11.2207C27.1011 11.2207 27.5488 11.6684 27.5488 12.2207V13.2197L32.5488 13.2207V19.2207L30.5288 19.2197L33.2956 26.816C33.4593 27.2527 33.5488 27.7258 33.5488 28.2197C33.5488 30.4289 31.758 32.2197 29.5488 32.2197C27.6856 32.2197 26.12 30.9458 25.6753 29.2215L21.4226 29.2215C20.9783 30.9463 19.4124 32.2207 17.5488 32.2207C15.604 32.2207 13.9833 30.8327 13.6234 28.9932C12.9844 28.6597 12.5488 27.9911 12.5488 27.2207V22.2207H21.5488C21.5488 22.7335 21.9349 23.1562 22.4322 23.214L22.5488 23.2207H24.5488C25.0617 23.2207 25.4843 22.8347 25.5421 22.3373L25.5488 22.2207V13.2207H22.5488V11.2207H26.5488ZM17.5488 26.2207C16.4443 26.2207 15.5488 27.1161 15.5488 28.2207C15.5488 29.3253 16.4443 30.2207 17.5488 30.2207C18.6534 30.2207 19.5488 29.3253 19.5488 28.2207C19.5488 27.1161 18.6534 26.2207 17.5488 26.2207ZM29.5488 26.2207C28.4443 26.2207 27.5488 27.1161 27.5488 28.2207C27.5488 29.3253 28.4443 30.2207 29.5488 30.2207C30.6534 30.2207 31.5488 29.3253 31.5488 28.2207C31.5488 27.1161 30.6534 26.2207 29.5488 26.2207ZM20.5488 13.2207C21.1011 13.2207 21.5488 13.6684 21.5488 14.2207V21.2207H12.5488V14.2207C12.5488 13.6684 12.9965 13.2207 13.5488 13.2207H20.5488ZM30.5488 15.2207H27.5488V17.2207H30.5488V15.2207ZM19.5488 15.2207H14.5488V16.2207H19.5488V15.2207Z" fill="#782F11"/>
</g>
<defs>
<clipPath id="clip0_30_1203">
<rect width="24" height="24" fill="white" transform="translate(10.5488 10.2207)"/>
</clipPath>
</defs>
</svg>
