<svg width="45" height="45" viewBox="0 0 45 45" fill="none" xmlns="http://www.w3.org/2000/svg">
<rect x="0.548828" y="0.220703" width="44" height="44" rx="10" fill="#CDDCDE"/>
<g clip-path="url(#clip0_38_1442)">
<path d="M31.5488 18.2206C32.0793 18.2206 32.588 18.4313 32.963 18.8064C33.3381 19.1815 33.5488 19.6902 33.5488 20.2206V24.2206C33.5488 24.751 33.3381 25.2597 32.963 25.6348C32.588 26.0099 32.0793 26.2206 31.5488 26.2206H30.4868C30.243 28.1539 29.3021 29.9318 27.8406 31.2206C26.3791 32.5094 24.4974 33.2206 22.5488 33.2206V31.2206C24.1401 31.2206 25.6663 30.5885 26.7915 29.4632C27.9167 28.338 28.5488 26.8119 28.5488 25.2206V19.2206C28.5488 17.6293 27.9167 16.1032 26.7915 14.978C25.6663 13.8527 24.1401 13.2206 22.5488 13.2206C20.9575 13.2206 19.4314 13.8527 18.3062 14.978C17.181 16.1032 16.5488 17.6293 16.5488 19.2206V26.2206H13.5488C13.0184 26.2206 12.5097 26.0099 12.1346 25.6348C11.7595 25.2597 11.5488 24.751 11.5488 24.2206V20.2206C11.5488 19.6902 11.7595 19.1815 12.1346 18.8064C12.5097 18.4313 13.0184 18.2206 13.5488 18.2206H14.6108C14.8549 16.2875 15.7959 14.5099 17.2574 13.2213C18.7189 11.9327 20.6004 11.2217 22.5488 11.2217C24.4973 11.2217 26.3788 11.9327 27.8403 13.2213C29.3017 14.5099 30.2428 16.2875 30.4868 18.2206H31.5488ZM18.3088 26.0056L19.3688 24.3096C20.3219 24.9066 21.4242 25.2224 22.5488 25.2206C23.6735 25.2224 24.7758 24.9066 25.7288 24.3096L26.7888 26.0056C25.5181 26.8017 24.0484 27.2229 22.5488 27.2206C21.0493 27.2229 19.5796 26.8017 18.3088 26.0056Z" fill="#02292D"/>
</g>
<defs>
<clipPath id="clip0_38_1442">
<rect width="24" height="24" fill="white" transform="translate(10.5488 10.2207)"/>
</clipPath>
</defs>
</svg>
