<svg width="45" height="45" viewBox="0 0 45 45" fill="none" xmlns="http://www.w3.org/2000/svg">
<rect x="0.548828" y="0.220703" width="44" height="44" rx="10" fill="#FCDFD3"/>
<g clip-path="url(#clip0_54_1144)">
<path d="M16.0487 30.2205C16.8767 30.2205 17.5487 30.8925 17.5487 31.7205C17.5487 32.5485 16.8767 33.2205 16.0487 33.2205C15.2207 33.2205 14.5487 32.5485 14.5487 31.7205C14.5487 30.8925 15.2207 30.2205 16.0487 30.2205ZM29.0487 30.2205C29.8767 30.2205 30.5487 30.8925 30.5487 31.7205C30.5487 32.5485 29.8767 33.2205 29.0487 33.2205C28.2207 33.2205 27.5487 32.5485 27.5487 31.7205C27.5487 30.8925 28.2207 30.2205 29.0487 30.2205ZM12.7207 11.9775L16.5477 15.8055V27.2205H30.5487V29.2205H15.5487C14.9967 29.2205 14.5487 28.7725 14.5487 28.2205V16.6335L11.3047 13.3925L12.7207 11.9775ZM26.5487 13.2205C27.1007 13.2205 27.5487 13.6685 27.5487 14.2205V16.2205H30.5417C31.0987 16.2205 31.5487 16.6765 31.5487 17.2155V25.2255C31.5487 25.7755 31.0987 26.2205 30.5417 26.2205H18.5557C17.9987 26.2205 17.5487 25.7645 17.5487 25.2255V17.2155C17.5487 16.6655 17.9987 16.2205 18.5557 16.2205H21.5477L21.5487 14.2205C21.5487 13.6685 21.9967 13.2205 22.5487 13.2205H26.5487ZM21.5487 18.2205H20.5487V24.2205H21.5487V18.2205ZM28.5487 18.2205H27.5487V24.2205H28.5487V18.2205ZM25.5487 15.2205H23.5487V16.2205H25.5487V15.2205Z" fill="#782F11"/>
</g>
<defs>
<clipPath id="clip0_54_1144">
<rect width="24" height="24" fill="white" transform="translate(10.5488 10.2207)"/>
</clipPath>
</defs>
</svg>
