<svg width="45" height="45" viewBox="0 0 45 45" fill="none" xmlns="http://www.w3.org/2000/svg">
<rect x="0.548828" y="0.220703" width="44" height="44" rx="10" fill="#FCDFD3"/>
<g clip-path="url(#clip0_56_1304)">
<path d="M17.2988 12.7207C17.8569 12.7207 18.4096 12.8306 18.9252 13.0442C19.4409 13.2578 19.9094 13.5709 20.304 13.9655C20.6987 14.3601 21.0117 14.8287 21.2253 15.3443C21.4389 15.8599 21.5488 16.4126 21.5488 16.9707V21.2207H17.2988C16.1717 21.2207 15.0907 20.7729 14.2936 19.9759C13.4966 19.1789 13.0488 18.0979 13.0488 16.9707C13.0488 15.8435 13.4966 14.7625 14.2936 13.9655C15.0907 13.1685 16.1717 12.7207 17.2988 12.7207ZM17.2988 23.2207H21.5488V27.4707C21.5488 28.3113 21.2996 29.133 20.8326 29.8319C20.3656 30.5308 19.7018 31.0755 18.9252 31.3972C18.1486 31.7189 17.2941 31.803 16.4697 31.639C15.6453 31.4751 14.888 31.0703 14.2936 30.4759C13.6993 29.8815 13.2945 29.1243 13.1305 28.2998C12.9665 27.4754 13.0507 26.6209 13.3723 25.8443C13.694 25.0677 14.2387 24.404 14.9377 23.937C15.6366 23.47 16.4583 23.2207 17.2988 23.2207ZM27.7988 12.7207C28.926 12.7207 30.007 13.1685 30.804 13.9655C31.6011 14.7625 32.0488 15.8435 32.0488 16.9707C32.0488 18.0979 31.6011 19.1789 30.804 19.9759C30.007 20.7729 28.926 21.2207 27.7988 21.2207H23.5488V16.9707C23.5488 15.8435 23.9966 14.7625 24.7936 13.9655C25.5907 13.1685 26.6717 12.7207 27.7988 12.7207ZM23.5488 23.2207H27.7988C28.6394 23.2207 29.4611 23.47 30.16 23.937C30.8589 24.404 31.4036 25.0677 31.7253 25.8443C32.047 26.6209 32.1312 27.4754 31.9672 28.2998C31.8032 29.1243 31.3984 29.8815 30.804 30.4759C30.2097 31.0703 29.4524 31.4751 28.628 31.639C27.8035 31.803 26.949 31.7189 26.1724 31.3972C25.3958 31.0755 24.7321 30.5308 24.2651 29.8319C23.7981 29.133 23.5488 28.3113 23.5488 27.4707V23.2207Z" fill="#782F11"/>
</g>
<defs>
<clipPath id="clip0_56_1304">
<rect width="24" height="24" fill="white" transform="translate(10.5488 10.2207)"/>
</clipPath>
</defs>
</svg>
