<svg width="45" height="45" viewBox="0 0 45 45" fill="none" xmlns="http://www.w3.org/2000/svg">
<rect x="0.548828" y="0.220703" width="44" height="44" rx="10" fill="#CDDCDE"/>
<g clip-path="url(#clip0_38_1468)">
<path d="M27.5488 25.4657V32.3377C27.5488 32.4261 27.5254 32.513 27.4809 32.5895C27.4363 32.6659 27.3723 32.7292 27.2953 32.7728C27.2184 32.8164 27.1312 32.8388 27.0428 32.8377C26.9543 32.8367 26.8677 32.8121 26.7918 32.7667L22.5488 30.2207L18.3058 32.7667C18.2299 32.8122 18.1432 32.8367 18.0546 32.8377C17.9661 32.8388 17.8789 32.8163 17.8019 32.7725C17.7249 32.7288 17.6609 32.6654 17.6164 32.5888C17.572 32.5122 17.5486 32.4252 17.5488 32.3367V25.4667C16.255 24.4308 15.3148 23.0186 14.8583 21.4252C14.4018 19.8319 14.4514 18.1361 15.0003 16.5722C15.5493 15.0082 16.5704 13.6534 17.9226 12.695C19.2748 11.7365 20.8914 11.2217 22.5488 11.2217C24.2063 11.2217 25.8228 11.7365 27.175 12.695C28.5273 13.6534 29.5484 15.0082 30.0973 16.5722C30.6463 18.1361 30.6959 19.8319 30.2394 21.4252C29.7828 23.0186 28.8427 24.4308 27.5488 25.4667V25.4657ZM22.5488 25.2207C24.1401 25.2207 25.6663 24.5885 26.7915 23.4633C27.9167 22.3381 28.5488 20.812 28.5488 19.2207C28.5488 17.6294 27.9167 16.1033 26.7915 14.978C25.6663 13.8528 24.1401 13.2207 22.5488 13.2207C20.9575 13.2207 19.4314 13.8528 18.3062 14.978C17.181 16.1033 16.5488 17.6294 16.5488 19.2207C16.5488 20.812 17.181 22.3381 18.3062 23.4633C19.4314 24.5885 20.9575 25.2207 22.5488 25.2207ZM22.5488 23.2207C21.488 23.2207 20.4705 22.7993 19.7204 22.0491C18.9703 21.299 18.5488 20.2815 18.5488 19.2207C18.5488 18.1598 18.9703 17.1424 19.7204 16.3923C20.4705 15.6421 21.488 15.2207 22.5488 15.2207C23.6097 15.2207 24.6271 15.6421 25.3773 16.3923C26.1274 17.1424 26.5488 18.1598 26.5488 19.2207C26.5488 20.2815 26.1274 21.299 25.3773 22.0491C24.6271 22.7993 23.6097 23.2207 22.5488 23.2207Z" fill="#02292D"/>
</g>
<defs>
<clipPath id="clip0_38_1468">
<rect width="24" height="24" fill="white" transform="translate(10.5488 10.2207)"/>
</clipPath>
</defs>
</svg>
