<svg width="45" height="45" viewBox="0 0 45 45" fill="none" xmlns="http://www.w3.org/2000/svg">
<rect x="0.548828" y="0.220703" width="44" height="44" rx="10" fill="#FCDFD3"/>
<g clip-path="url(#clip0_54_1068)">
<path d="M31.5488 29.2207H33.5488V31.2207H11.5488V29.2207H13.5488V14.2207C13.5488 13.9555 13.6542 13.7011 13.8417 13.5136C14.0293 13.3261 14.2836 13.2207 14.5488 13.2207H24.5488C24.814 13.2207 25.0684 13.3261 25.2559 13.5136C25.4435 13.7011 25.5488 13.9555 25.5488 14.2207V29.2207H27.5488V19.2207H30.5488C30.814 19.2207 31.0684 19.3261 31.2559 19.5136C31.4435 19.7011 31.5488 19.9555 31.5488 20.2207V29.2207ZM17.5488 21.2207V23.2207H21.5488V21.2207H17.5488ZM17.5488 17.2207V19.2207H21.5488V17.2207H17.5488Z" fill="#782F11"/>
</g>
<defs>
<clipPath id="clip0_54_1068">
<rect width="24" height="24" fill="white" transform="translate(10.5488 10.2207)"/>
</clipPath>
</defs>
</svg>
